<svg width="2500" height="2500" viewBox="0 0 2500 2500" fill="none" xmlns="http://www.w3.org/2000/svg">
<g filter="url(#filter0_d_1_23)">
<path d="M1197.73 1020.82C1214.08 997.576 1231.99 994.62 1246.51 994.62C1261.04 994.62 1285.23 997.576 1301.59 1020.82C1430.52 1191.56 1643.32 1531.68 1800.3 1782.57C1902.68 1946.19 1981.3 2071.85 1997.43 2087.85C2057.99 2147.88 2141.04 2110.47 2189.3 2042.37C2236.81 1975.33 2250 1928.25 2250 1878.03C2250 1843.82 1561.68 609.52 1492.36 506.779C1425.7 407.96 1403.98 383 1289.89 383H1204.5C1090.75 383 1074.31 407.96 1007.64 506.779C938.324 609.52 250 1843.82 250 1878.03C250 1928.25 263.19 1975.33 310.702 2042.37C358.961 2110.47 442.012 2147.88 502.567 2087.85C518.7 2071.85 597.328 1946.19 699.7 1782.57C856.677 1531.68 1068.8 1191.56 1197.73 1020.82Z" fill="white"/>
<path d="M1471.64 520.761L1471.64 520.762C1505.51 570.964 1694.18 903.832 1875.32 1230.24C1965.66 1393.04 2053.81 1553.63 2119.34 1675.62C2152.12 1736.64 2179.18 1787.87 2198.01 1824.85C2207.44 1843.37 2214.7 1858.1 2219.56 1868.61C2222.01 1873.9 2223.7 1877.82 2224.73 1880.47C2224.83 1880.7 2224.91 1880.92 2224.98 1881.11C2224.47 1924.11 2212.96 1965.75 2168.91 2027.91C2147.12 2058.66 2118.52 2080.85 2090.76 2089.22C2064.39 2097.17 2038.23 2093.09 2015.04 2070.09C2015.04 2070.09 2015.04 2070.09 2015.04 2070.09C2015.02 2070.07 2014.85 2069.9 2014.53 2069.53C2014.17 2069.13 2013.71 2068.58 2013.13 2067.86C2011.95 2066.41 2010.47 2064.48 2008.66 2062.02C2005.04 2057.11 2000.45 2050.55 1994.92 2042.38C1983.87 2026.07 1969.47 2003.97 1952.27 1977.09C1917.88 1923.36 1872.71 1851.16 1821.5 1769.31L1820.77 1768.15C1664.27 1518.02 1451.36 1177.74 1321.78 1006.06C1298.34 973.111 1263.8 969.62 1246.51 969.62C1237.56 969.62 1225.57 970.509 1212.79 976.097C1199.89 981.738 1187.97 991.367 1177.54 1006.07C1051.63 1172.89 847.683 1498.89 692.681 1746.66C687.908 1754.28 683.182 1761.84 678.506 1769.31C627.293 1851.16 582.122 1923.36 547.736 1977.09C530.535 2003.97 516.136 2026.07 505.083 2042.38C499.55 2050.55 494.96 2057.11 491.342 2062.02C489.533 2064.48 488.051 2066.41 486.876 2067.86C486.293 2068.58 485.829 2069.13 485.476 2069.53C485.152 2069.9 484.989 2070.07 484.968 2070.09C484.966 2070.09 484.965 2070.09 484.965 2070.09C461.767 2093.09 435.616 2097.17 409.24 2089.22C381.488 2080.85 352.886 2058.66 331.099 2027.91L310.873 2042.25L331.099 2027.91C287.042 1965.75 275.531 1924.11 275.018 1881.11C275.092 1880.92 275.174 1880.7 275.265 1880.47C276.3 1877.82 277.995 1873.9 280.44 1868.61C285.299 1858.1 292.557 1843.37 301.989 1824.85C320.82 1787.87 347.876 1736.64 380.657 1675.62C446.194 1553.63 534.339 1393.04 624.686 1230.24C805.824 903.833 994.493 570.963 1028.36 520.762C1062.8 469.721 1080.77 443.64 1102.71 428.339C1122.81 414.327 1148.77 408 1204.5 408H1289.89C1345.73 408 1373.43 414.295 1395.09 428.665C1418.18 443.984 1437.56 470.248 1471.64 520.761ZM2225.54 1882.69C2225.63 1883.01 2225.6 1882.94 2225.51 1882.58C2225.52 1882.63 2225.53 1882.67 2225.54 1882.69ZM274.459 1882.69C274.467 1882.67 274.478 1882.63 274.494 1882.58C274.404 1882.94 274.366 1883.01 274.459 1882.69Z" stroke="black" stroke-opacity="0.75" stroke-width="50"/>
</g>
<defs>
<filter id="filter0_d_1_23" x="246" y="383" width="2008" height="1742.93" filterUnits="userSpaceOnUse" color-interpolation-filters="sRGB">
<feFlood flood-opacity="0" result="BackgroundImageFix"/>
<feColorMatrix in="SourceAlpha" type="matrix" values="0 0 0 0 0 0 0 0 0 0 0 0 0 0 0 0 0 0 127 0" result="hardAlpha"/>
<feOffset dy="4"/>
<feGaussianBlur stdDeviation="2"/>
<feComposite in2="hardAlpha" operator="out"/>
<feColorMatrix type="matrix" values="0 0 0 0 0 0 0 0 0 0 0 0 0 0 0 0 0 0 0.25 0"/>
<feBlend mode="normal" in2="BackgroundImageFix" result="effect1_dropShadow_1_23"/>
<feBlend mode="normal" in="SourceGraphic" in2="effect1_dropShadow_1_23" result="shape"/>
</filter>
</defs>
</svg>
