<svg width="2500" height="2500" viewBox="0 0 2500 2500" fill="none" xmlns="http://www.w3.org/2000/svg">
<path d="M1780 614H774V2093H1780V614Z" fill="white"/>
<path d="M987.896 1640.29C987.896 1683.42 952.948 1718.42 909.771 1718.42C866.594 1718.42 831.646 1683.42 831.646 1640.29V911.125C831.646 877.115 853.677 847.011 886.073 836.646C918.625 826.334 953.885 838.209 973.521 865.969L1847.33 2100.56C2115.14 1911.6 2291.34 1600.45 2291.34 1249.67C2291.34 676.75 1822.59 208 1249.67 208C676.75 208 208 676.75 208 1249.67C208 1822.59 676.75 2291.34 1249.67 2291.34C1415.92 2291.34 1572.9 2250.87 1712.69 2180.82L987.896 1156.75V1640.29ZM1508.73 859.042C1508.73 815.917 1543.68 780.917 1586.86 780.917C1630.03 780.917 1664.98 815.917 1664.98 859.042V1579.88L1508.73 1359.72V859.042Z" fill="black"/>
</svg>
