<svg width="2516" height="2500" viewBox="0 0 2516 2500" fill="none" xmlns="http://www.w3.org/2000/svg">
<g clip-path="url(#clip0_1_11)">
<path d="M1033.99 31.8531C1095.75 -3.62867 1176.18 -3.78894 1237.88 31.8531C1548.3 207.918 1858.81 383.706 2169.17 559.877C2227.54 592.884 2266.59 658.096 2265.99 725.613V1784.89C2266.43 1855.2 2223.52 1921.97 2161.94 1954.23C1852.54 2129.32 1543.31 2304.63 1233.97 2479.72C1170.94 2515.9 1088.89 2513.11 1027.83 2473.97C935.07 2420 842.155 2366.29 749.39 2312.37C730.434 2301.02 709.066 2291.99 695.681 2273.55C707.514 2257.54 728.669 2255.54 745.86 2248.55C784.578 2236.19 820.139 2216.36 855.708 2197.11C864.703 2190.93 875.684 2193.3 884.306 2198.82C963.623 2244.47 1042.24 2291.45 1121.82 2336.67C1138.8 2346.5 1155.99 2333.44 1170.5 2325.32C1474.11 2153.08 1778.1 1981.48 2081.65 1809.18C2092.9 1803.75 2099.12 1791.77 2098.2 1779.4C2098.42 1429.97 2098.26 1080.48 2098.31 731.045C2099.6 717.012 2091.51 704.111 2078.87 698.368C1770.55 524.075 1462.39 349.515 1154.12 175.178C1148.78 171.492 1142.45 169.515 1135.97 169.505C1129.49 169.496 1123.16 171.455 1117.81 175.125C809.539 349.515 501.432 524.235 193.165 698.519C180.569 704.271 172.116 716.959 173.615 731.045C173.668 1080.48 173.615 1429.97 173.615 1779.45C173.081 1785.49 174.401 1791.54 177.398 1796.8C180.396 1802.06 184.926 1806.27 190.38 1808.86C272.642 1855.69 355.011 1902.18 437.327 1948.85C483.7 1973.9 540.638 1988.79 591.731 1969.6C636.818 1953.36 668.422 1907.18 667.562 1859.13C667.988 1511.73 667.349 1164.29 667.881 816.949C666.755 801.528 681.329 788.786 696.266 790.238C735.792 789.97 775.371 789.703 814.896 790.344C831.395 789.97 842.749 806.576 840.709 822.113C840.549 1171.7 841.135 1521.3 840.443 1870.9C840.549 1964.07 802.416 2065.45 716.561 2111.03C610.793 2166.03 480.063 2154.37 375.572 2101.63C285.114 2056.31 198.789 2002.82 109.936 1954.27C48.1902 1922.19 5.4978 1855.15 5.93244 1784.89V725.613C5.28491 656.698 45.8839 590.302 106.077 557.776C415.417 382.54 724.704 207.17 1033.99 31.8531Z" fill="#8CC84B"/>
<path d="M1303.86 765.619C1438.77 756.902 1583.21 760.455 1704.61 827.171C1798.61 878.297 1850.72 985.597 1852.38 1090.42C1849.76 1104.56 1835.03 1112.36 1821.59 1111.39C1782.44 1111.34 1743.29 1111.92 1704.14 1111.12C1687.54 1111.76 1677.89 1096.4 1675.8 1081.66C1664.56 1031.51 1637.31 981.831 1590.28 957.639C1518.08 921.356 1434.37 923.181 1355.65 923.938C1298.18 927.001 1236.38 931.996 1187.69 965.92C1150.31 991.616 1138.96 1043.49 1152.3 1085.27C1164.88 1115.26 1199.38 1124.94 1227.6 1133.86C1390.19 1176.55 1562.49 1172.3 1721.97 1228.48C1788 1251.38 1852.6 1295.9 1875.2 1365.29C1904.76 1458.3 1891.8 1569.48 1825.88 1644.14C1772.42 1705.59 1694.56 1739.03 1616.9 1757.19C1513.59 1780.32 1406.37 1780.91 1301.45 1770.64C1202.8 1759.35 1100.14 1733.33 1023.98 1665.86C958.851 1609.1 927.043 1520.66 930.2 1435.29C930.954 1420.88 945.253 1410.83 959.011 1412.01C998.43 1411.69 1037.85 1411.58 1077.27 1412.06C1093.01 1410.93 1104.69 1424.59 1105.49 1439.49C1112.77 1487.27 1130.66 1537.43 1172.17 1565.76C1252.29 1617.64 1352.81 1614.09 1444.55 1615.54C1520.55 1612.16 1605.86 1611.14 1667.88 1560.71C1700.61 1531.95 1710.3 1483.84 1701.46 1442.44C1691.88 1407.5 1655.46 1391.21 1624.18 1380.56C1463.67 1329.6 1289.45 1348.09 1130.5 1290.46C1065.97 1267.56 1003.57 1224.28 978.774 1157.73C944.18 1063.55 960.031 947.052 1032.86 874.904C1103.88 803.14 1206.39 775.511 1303.86 765.619Z" fill="#8CC84B"/>
</g>
<defs>
<clipPath id="clip0_1_11">
<rect width="2515.22" height="2500" fill="white"/>
</clipPath>
</defs>
</svg>
