<svg width="2500" height="2299" viewBox="0 0 2500 2299" fill="none" xmlns="http://www.w3.org/2000/svg">
<g clip-path="url(#clip0_1_15)">
<path d="M0 1145.56C0 1338.55 184.331 1518.71 474.93 1620.26C416.898 1918.93 464.535 2159.67 623.628 2253.46C787.151 2349.88 1030.77 2283.15 1262 2076.49C1487.4 2274.8 1715.19 2352.84 1874.14 2258.78C2037.52 2162.08 2087.2 1905.02 2027.57 1597.02C2330.25 1494.71 2499.56 1341.09 2499.56 1145.56C2499.56 957.049 2314.9 793.971 2028.21 693.072C2092.41 372.345 2038.02 137.452 1872.33 39.7776C1712.59 -54.3925 1482.15 27.6849 1253.45 231.171C1015.5 15.1904 787.338 -50.7465 621.83 47.1999C462.246 141.641 416.711 386.759 474.93 690.953C194.135 791.038 0 957.816 0 1145.56Z" fill="white"/>
<path d="M1964.99 793.972C1941.37 785.686 1917.53 778.01 1893.53 770.951C1897.51 754.413 1901.2 737.802 1904.58 721.124C1958.66 452.675 1923.3 236.413 1802.52 165.225C1686.72 96.9469 1497.33 168.137 1306.06 338.308C1287.21 355.114 1268.78 372.405 1250.78 390.163C1238.73 378.355 1226.47 366.776 1214 355.432C1013.54 173.46 812.607 96.7861 691.957 168.186C576.267 236.655 542.001 439.97 590.699 694.378C595.545 719.571 601.015 744.635 607.105 769.545C578.675 777.801 551.216 786.599 524.946 795.961C289.932 879.725 139.839 1011.01 139.839 1147.2C139.839 1287.84 300.956 1428.91 545.754 1514.45C565.603 1521.35 585.618 1527.75 605.779 1533.63C599.23 1560.47 593.415 1587.48 588.342 1614.66C541.912 1864.64 578.174 2063.14 693.558 2131.19C812.735 2201.43 1012.76 2129.22 1207.53 1955.17C1222.93 1941.4 1238.38 1926.81 1253.85 1911.52C1273.34 1930.74 1293.35 1949.4 1313.85 1967.49C1502.52 2133.46 1688.84 2200.49 1804.13 2132.26C1923.2 2061.79 1961.89 1848.55 1911.65 1589.12C1907.82 1569.3 1903.35 1549.05 1898.34 1528.45C1912.38 1524.21 1926.17 1519.84 1939.62 1515.27C2194.1 1429.08 2359.67 1289.73 2359.67 1147.2C2359.67 1010.52 2204.74 878.35 1964.99 793.972Z" fill="#8685EF"/>
<path d="M1910.54 1423.55C1898.41 1427.66 1885.95 1431.63 1873.25 1435.48C1845.16 1344.54 1807.24 1247.85 1760.85 1147.98C1805.13 1050.46 1841.57 955.004 1868.89 864.659C1891.58 871.388 1913.64 878.469 1934.87 885.951C2140.3 958.238 2265.6 1065.13 2265.6 1147.5C2265.6 1235.22 2130.26 1349.11 1910.54 1423.55ZM1819.37 1608.25C1841.58 1722.96 1844.75 1826.69 1830.05 1907.76C1816.82 1980.62 1790.24 2029.2 1757.36 2048.65C1687.4 2090.05 1537.79 2036.24 1376.46 1894.3C1357.96 1878.03 1339.32 1860.66 1320.64 1842.28C1383.18 1772.33 1445.7 1691.02 1506.71 1600.72C1614.03 1590.99 1715.42 1575.07 1807.36 1553.35C1811.88 1572.02 1815.9 1590.34 1819.37 1608.25ZM897.374 2041.51C829.027 2066.18 774.592 2066.89 741.691 2047.49C671.664 2006.2 642.566 1846.82 682.265 1633.03C686.985 1607.76 692.39 1582.64 698.475 1557.69C789.397 1578.25 890.045 1593.04 997.621 1601.96C1059.03 1690.31 1123.35 1771.53 1188.17 1842.65C1174.39 1856.27 1160.29 1869.55 1145.88 1882.46C1059.74 1959.44 973.443 2014.04 897.384 2041.51H897.374ZM577.175 1423.01C468.933 1385.18 379.542 1336.03 318.27 1282.39C263.215 1234.19 235.413 1186.33 235.413 1147.5C235.413 1064.86 355.926 959.449 556.918 887.809C582.146 878.857 607.624 870.66 633.321 863.232C661.104 955.605 697.541 1052.19 741.514 1149.84C696.971 1248.96 660.013 1347.09 631.975 1440.55C613.571 1435.16 595.299 1429.31 577.175 1423.01ZM684.514 676.057C642.791 458.079 670.495 293.652 740.217 252.393C814.488 208.441 978.699 271.115 1151.79 428.229C1162.84 438.272 1173.96 448.788 1185.09 459.666C1120.6 530.464 1056.87 611.065 995.989 698.907C891.588 708.8 791.647 724.69 699.772 745.972C694.112 722.798 689.024 699.493 684.514 676.057ZM1642.05 917.78C1620.35 879.457 1597.84 841.617 1574.54 804.286C1645.38 813.426 1713.23 825.578 1776.95 840.454C1757.82 903.136 1733.98 968.68 1705.9 1035.87C1685.39 996.077 1664.1 956.705 1642.05 917.78ZM1251.56 528.947C1295.31 577.389 1339.11 631.483 1382.2 690.169C1294.79 685.946 1207.24 685.927 1119.83 690.109C1162.96 631.966 1207.14 577.95 1251.56 528.947ZM858.579 918.441C836.803 957.056 815.911 996.188 795.921 1035.81C768.305 968.846 744.677 903.005 725.382 839.428C788.719 824.935 856.261 813.094 926.631 804.105C903.075 841.667 880.384 879.791 858.579 918.441ZM928.655 1497.79C855.956 1489.5 787.392 1478.27 724.077 1464.17C743.675 1399.47 767.823 1332.22 796.028 1263.82C816.103 1303.45 837.087 1342.61 858.962 1381.25C881.284 1420.66 904.521 1459.51 928.655 1497.79ZM1254.19 1772.88C1209.24 1723.3 1164.41 1668.46 1120.63 1609.47C1163.12 1611.18 1206.46 1612.05 1250.51 1612.05C1295.75 1612.05 1340.49 1611.01 1384.5 1609C1341.28 1669.05 1297.63 1723.98 1254.19 1772.88ZM1706.81 1260.33C1736.47 1329.46 1761.48 1396.36 1781.35 1459.96C1716.99 1474.98 1647.5 1487.08 1574.28 1496.06C1597.74 1458.03 1620.47 1419.53 1642.43 1380.57C1664.75 1340.99 1686.22 1300.89 1706.81 1260.33ZM1560.28 1332.14C1526.66 1391.85 1491.13 1450.46 1453.79 1507.8C1387.92 1512.62 1319.86 1515.1 1250.51 1515.1C1181.43 1515.1 1114.23 1512.9 1049.52 1508.61C1011.2 1451.39 975.013 1392.7 941.033 1332.68C907.212 1272.97 875.621 1211.98 846.328 1149.82C875.546 1087.65 907.042 1026.63 940.749 966.86V966.887C974.444 907.118 1010.35 848.681 1048.39 791.701C1114.4 786.598 1182.09 783.927 1250.52 783.927C1319.24 783.927 1387.02 786.619 1453.02 791.762C1490.67 848.653 1526.34 906.887 1559.97 966.351C1593.8 1025.97 1625.71 1086.7 1655.67 1148.44C1626.02 1210.82 1594.2 1272.09 1560.28 1332.14ZM1755.91 249.51C1830.24 293.342 1859.15 470.081 1812.45 701.86C1809.38 716.959 1806.06 732.001 1802.46 746.976C1710.38 725.252 1610.37 709.081 1505.66 699.037C1444.66 610.241 1381.46 529.499 1318.01 459.615C1334.64 443.229 1351.67 427.268 1369.06 411.747C1532.95 265.932 1686.12 208.361 1755.91 249.51Z" fill="white"/>
<path d="M1250.54 946.2C1360.02 946.2 1448.76 1036.93 1448.76 1148.86C1448.76 1260.77 1360.02 1351.51 1250.54 1351.51C1141.07 1351.51 1052.31 1260.77 1052.31 1148.86C1052.31 1036.93 1141.07 946.2 1250.54 946.2Z" fill="#8685EF"/>
</g>
<defs>
<clipPath id="clip0_1_15">
<rect width="2500" height="2298.04" fill="white"/>
</clipPath>
</defs>
</svg>
